<mxfile host="app.diagrams.net" modified="2022-04-01T02:40:01.365Z" agent="5.0 (Windows NT 10.0; Win64; x64) AppleWebKit/537.36 (KHTML, like Gecko) Chrome/99.0.4844.74 Safari/537.36 Edg/99.0.1150.55" etag="RZqgGPagi7PWILsOPP_n" version="17.2.5" type="github">
  <diagram id="uPQeWMrMUKIOBj468AOt" name="Page-1">
    <mxGraphModel dx="1038" dy="579" grid="1" gridSize="10" guides="1" tooltips="1" connect="1" arrows="1" fold="1" page="1" pageScale="1" pageWidth="850" pageHeight="1100" math="0" shadow="0">
      <root>
        <mxCell id="0" />
        <mxCell id="1" parent="0" />
        <mxCell id="kkCox0MEKZYpweuvrR-2-18" value="" style="edgeStyle=orthogonalEdgeStyle;rounded=0;orthogonalLoop=1;jettySize=auto;html=1;" edge="1" parent="1" source="kkCox0MEKZYpweuvrR-2-13" target="kkCox0MEKZYpweuvrR-2-15">
          <mxGeometry relative="1" as="geometry" />
        </mxCell>
        <mxCell id="kkCox0MEKZYpweuvrR-2-13" value="If workid and joincount = 2" style="rhombus;whiteSpace=wrap;html=1;" vertex="1" parent="1">
          <mxGeometry x="342.5" y="150" width="115" height="90" as="geometry" />
        </mxCell>
        <mxCell id="kkCox0MEKZYpweuvrR-2-20" value="" style="edgeStyle=orthogonalEdgeStyle;rounded=0;orthogonalLoop=1;jettySize=auto;html=1;" edge="1" parent="1" source="kkCox0MEKZYpweuvrR-2-15" target="kkCox0MEKZYpweuvrR-2-19">
          <mxGeometry relative="1" as="geometry" />
        </mxCell>
        <mxCell id="kkCox0MEKZYpweuvrR-2-15" value="set simulation game level data&lt;br&gt;arrival rate&lt;br&gt;" style="rounded=1;whiteSpace=wrap;html=1;" vertex="1" parent="1">
          <mxGeometry x="340" y="270" width="120" height="60" as="geometry" />
        </mxCell>
        <mxCell id="kkCox0MEKZYpweuvrR-2-19" value="Invoke get arena info function" style="rounded=1;whiteSpace=wrap;html=1;" vertex="1" parent="1">
          <mxGeometry x="340" y="370" width="120" height="60" as="geometry" />
        </mxCell>
      </root>
    </mxGraphModel>
  </diagram>
</mxfile>
